<svg xmlns="http://www.w3.org/2000/svg" viewBox="0 0 119.77 31.4"><defs><style>.cls-1,.cls-2{fill:#f19a3e;}.cls-2{font-size:21.49px;font-family:Montserrat-Regular, Montserrat;}.cls-3{letter-spacing:0em;}.cls-4{letter-spacing:-0.01em;}.cls-5{letter-spacing:0em;}.cls-6{fill:#fff;}</style></defs><g id="Layer_2" data-name="Layer 2"><g id="Layer_1-2" data-name="Layer 1"><path class="cls-1" d="M26.13,12.82C26.05,29.91.07,29.9,0,12.82S26.06-4.27,26.13,12.82Z"/><text class="cls-2" transform="translate(29.12 25.77)"><tspan class="cls-3">h</tspan><tspan x="14.59" y="0">olida</tspan><tspan class="cls-4" x="66.88" y="0">z</tspan><tspan class="cls-5" x="77.67" y="0">e</tspan></text><path class="cls-6" d="M3,20.38l2.64-3.25H4.71l6.15,7.58.89,1.09c.51.63,1.39-.26.89-.88l-6.18-7.6-.87-1.07a.61.61,0,0,0-.88,0L2.07,19.5c-.51.62.37,1.51.88.88Z"/><path class="cls-6" d="M8.11,19.27c1.63-2,3.25-4,4.89-6h-.88l7.39,8.37,1.07,1.21c.53.61,1.42-.28.88-.88l-7.39-8.38L13,12.37a.62.62,0,0,0-.88,0c-1.65,2-3.27,4-4.89,6-.51.62.37,1.51.88.89Z"/><path class="cls-6" d="M16.68,17l5-6.17h-.88l4,5a.63.63,0,0,0,.89,0,.65.65,0,0,0,0-.88l-4-5a.62.62,0,0,0-.88,0l-5,6.16c-.51.62.37,1.51.88.89Z"/><path class="cls-6" d="M12.56,13.59a.63.63,0,0,0,0-1.25.63.63,0,0,0,0,1.25Z"/><path class="cls-6" d="M21.28,11.19a.63.63,0,0,0,0-1.25.63.63,0,0,0,0,1.25Z"/></g></g></svg>