<svg xmlns="http://www.w3.org/2000/svg" version="1.1" xmlns:xlink="http://www.w3.org/1999/xlink" xmlns:svgjs="http://svgjs.com/svgjs" width="1440" height="560" preserveAspectRatio="none" viewBox="0 0 1440 560"><g mask="url(&quot;#SvgjsMask1009&quot;)" fill="none"><path d="M-109.13 255.67C73.75 258.85 227.7 488.64 583.68 490.87 939.65 493.1 1101.73 583.62 1276.48 583.83" stroke="rgba(241, 154, 62, 1)" stroke-width="2"></path><path d="M-200.09 189.7C-103.93 191.35-48.22 295.97 164.36 312.9 376.94 329.83 409.52 611.18 528.81 632.76" stroke="rgba(241, 154, 62, 1)" stroke-width="2"></path><path d="M-162.77 483.42C-30.35 478.42 75.72 264.55 320.2 265.02 564.68 265.49 652.3 615.55 803.17 636.14" stroke="rgba(241, 154, 62, 1)" stroke-width="2"></path><path d="M-32.41 156.91C72.88 157.15 175.25 226.91 382.91 226.91 590.56 226.91 565.88 145.23 798.22 156.91 1030.57 168.59 1060.51 598.05 1213.54 646.42" stroke="rgba(241, 154, 62, 1)" stroke-width="2"></path><path d="M-107.44 155.96C66.36 157.49 291.67 326.96 564.29 335.16 836.9 343.36 797.76 562.42 900.15 574.21" stroke="rgba(241, 154, 62, 1)" stroke-width="2"></path></g><defs><mask id="SvgjsMask1009"><rect width="1440" height="560" fill="#ffffff"></rect></mask></defs></svg>