<svg id="Layer_1" data-name="Layer 1" xmlns="http://www.w3.org/2000/svg" viewBox="0 0 252.92 107.15"><defs><style>.cls-1,.cls-9{fill:#f19a3e;}.cls-11,.cls-2,.cls-9{font-size:21.49px;font-family:Montserrat-Regular, Montserrat;}.cls-3{letter-spacing:0em;}.cls-4{letter-spacing:-0.01em;}.cls-5{letter-spacing:0em;}.cls-6,.cls-7,.cls-8{fill:none;}.cls-6{stroke:#aa4d00;}.cls-12,.cls-6,.cls-7,.cls-8{stroke-miterlimit:10;}.cls-7{stroke:#fcd900;}.cls-8{stroke:#ff2a2a;}.cls-10,.cls-11,.cls-12{fill:#fff;}.cls-12{stroke:#000;}</style></defs><ellipse cx="15.95" cy="94.81" rx="15.95" ry="12.34"/><path class="cls-1" d="M28.81,31C28.73,48,2.75,48,2.68,31S28.74,13.86,28.81,31Z" transform="translate(0.8 -18.13)"/><text class="cls-2" transform="translate(162.27 100.62)"><tspan class="cls-3">h</tspan><tspan x="14.59" y="0">olida</tspan><tspan class="cls-4" x="66.88" y="0">z</tspan><tspan class="cls-5" x="77.67" y="0">e</tspan></text><line class="cls-6" x1="131.34" y1="100.09" x2="138.4" y2="91.42"/><line class="cls-7" x1="138.62" y1="100.09" x2="145.67" y2="91.42"/><line class="cls-8" x1="146.3" y1="100.09" x2="153.36" y2="91.42"/><line class="cls-8" x1="159.8" y1="100.09" x2="152.75" y2="91.42"/><line class="cls-7" x1="152.53" y1="100.09" x2="145.48" y2="91.42"/><line class="cls-6" x1="144.84" y1="100.09" x2="137.79" y2="91.42"/><text class="cls-2" transform="translate(32.6 100.62)"><tspan class="cls-3">h</tspan><tspan x="14.59" y="0">olida</tspan><tspan class="cls-4" x="66.88" y="0">z</tspan><tspan class="cls-5" x="77.67" y="0">e</tspan></text><line class="cls-6" x1="1.68" y1="100.09" x2="8.73" y2="91.42"/><line class="cls-7" x1="8.95" y1="100.09" x2="16" y2="91.42"/><line class="cls-8" x1="16.63" y1="100.09" x2="23.69" y2="91.42"/><line class="cls-8" x1="30.13" y1="100.09" x2="23.08" y2="91.42"/><line class="cls-7" x1="22.86" y1="100.09" x2="15.81" y2="91.42"/><line class="cls-6" x1="15.17" y1="100.09" x2="8.12" y2="91.42"/><text class="cls-9" transform="translate(32.6 25.77)"><tspan class="cls-3">h</tspan><tspan x="14.59" y="0">olida</tspan><tspan class="cls-4" x="66.88" y="0">z</tspan><tspan class="cls-5" x="77.67" y="0">e</tspan></text><path class="cls-10" d="M5.63,38.51l2.64-3.25H7.39q2.85,3.62,5.71,7.22l.81,1a.62.62,0,0,0,.88,0,.63.63,0,0,0,0-.88L9.07,35.39l-.8-1a.62.62,0,0,0-.88,0L4.75,37.63c-.51.62.37,1.51.88.88Z" transform="translate(0.8 -18.13)"/><path class="cls-10" d="M10.79,37.4c1.63-2,3.25-4,4.89-6H14.8l7.39,8.37L23.26,41c.53.61,1.42-.28.88-.88l-7.39-8.38L15.68,30.5a.63.63,0,0,0-.88,0c-1.65,2-3.27,4-4.89,6-.51.61.37,1.5.88.88Z" transform="translate(0.8 -18.13)"/><path class="cls-10" d="M19.36,35.15l5-6.17h-.88l4,5.05a.65.65,0,0,0,.89,0,.66.66,0,0,0,0-.89l-4-5a.62.62,0,0,0-.88,0l-5,6.16c-.51.62.37,1.51.88.89Z" transform="translate(0.8 -18.13)"/><path class="cls-10" d="M7.83,35.61a.63.63,0,0,0,0-1.25.63.63,0,0,0,0,1.25Z" transform="translate(0.8 -18.13)"/><path class="cls-10" d="M15.24,31.73a.63.63,0,0,0,0-1.25.63.63,0,0,0,0,1.25Z" transform="translate(0.8 -18.13)"/><path class="cls-10" d="M24,29.32a.63.63,0,0,0,0-1.25.63.63,0,0,0,0,1.25Z" transform="translate(0.8 -18.13)"/><path class="cls-10" d="M157.78,34.46c-.08,17.09-26.06,17.09-26.14,0C131.72,17.37,157.71,17.37,157.78,34.46Z" transform="translate(0.8 -18.13)"/><text class="cls-11" transform="translate(161.57 29.29)"><tspan class="cls-3">h</tspan><tspan x="14.59" y="0">olida</tspan><tspan class="cls-4" x="66.88" y="0">z</tspan><tspan class="cls-5" x="77.67" y="0">e</tspan></text><line class="cls-12" x1="134.58" y1="23.92" x2="137.56" y2="20.25"/><line class="cls-12" x1="139.57" y1="23.02" x2="145.04" y2="16.28"/><line class="cls-12" x1="148.26" y1="20.61" x2="153.72" y2="13.9"/><line class="cls-12" x1="158.51" y1="19.84" x2="153.83" y2="14.08"/><line class="cls-12" x1="153.92" y1="26.39" x2="145.01" y2="16.33"/><line class="cls-12" x1="145.14" y1="29.49" x2="137.62" y2="20.24"/><path class="cls-10" d="M136.8,38.5" transform="translate(0.8 -18.13)"/><path d="M136.8,39.13a.63.63,0,0,0,0-1.25.63.63,0,0,0,0,1.25Z" transform="translate(0.8 -18.13)"/><path class="cls-10" d="M144.21,34.62" transform="translate(0.8 -18.13)"/><path d="M144.21,35.24a.63.63,0,0,0,0-1.25.63.63,0,0,0,0,1.25Z" transform="translate(0.8 -18.13)"/><path class="cls-10" d="M152.93,32.21" transform="translate(0.8 -18.13)"/><path d="M152.93,32.84a.63.63,0,0,0,0-1.25.63.63,0,0,0,0,1.25Z" transform="translate(0.8 -18.13)"/></svg>